<svg width="376" height="40" viewBox="0 0 376 40" fill="none" xmlns="http://www.w3.org/2000/svg">
<path d="M35.144 39H27.416L26.84 25.992C26.68 22.888 26.6 20.12 26.6 17.688C26.6 15.832 26.648 14.072 26.744 12.408L21.608 35.496H14.168L8.696 12.408C8.888 15.192 8.984 17.816 8.984 20.28C8.984 22.136 8.936 24.072 8.84 26.088L8.264 39H0.584L3.08 5.736H13.016L18.008 28.296L22.664 5.736H32.648L35.144 39ZM59.9664 31.608C59.9664 32.568 60.0944 33.272 60.3504 33.72C60.6384 34.168 61.0864 34.504 61.6944 34.728L60.1104 39.672C58.5424 39.544 57.2624 39.208 56.2704 38.664C55.2784 38.088 54.5104 37.192 53.9664 35.976C52.3024 38.536 49.7424 39.816 46.2864 39.816C43.7584 39.816 41.7424 39.08 40.2384 37.608C38.7344 36.136 37.9824 34.216 37.9824 31.848C37.9824 29.064 39.0064 26.936 41.0544 25.464C43.1024 23.992 46.0624 23.256 49.9344 23.256H52.5264V22.152C52.5264 20.648 52.2064 19.624 51.5664 19.08C50.9264 18.504 49.8064 18.216 48.2064 18.216C47.3744 18.216 46.3664 18.344 45.1824 18.6C43.9984 18.824 42.7824 19.144 41.5344 19.56L39.8064 14.568C41.4064 13.96 43.0384 13.496 44.7024 13.176C46.3984 12.856 47.9664 12.696 49.4064 12.696C53.0544 12.696 55.7264 13.448 57.4224 14.952C59.1184 16.456 59.9664 18.712 59.9664 21.72V31.608ZM48.4944 34.392C50.2224 34.392 51.5664 33.576 52.5264 31.944V27.432H50.6544C48.9264 27.432 47.6304 27.736 46.7664 28.344C45.9344 28.952 45.5184 29.896 45.5184 31.176C45.5184 32.2 45.7744 33 46.2864 33.576C46.8304 34.12 47.5664 34.392 48.4944 34.392ZM79.8313 12.792C80.7593 12.792 81.6073 12.904 82.3753 13.128L81.1753 20.472C80.2153 20.248 79.4473 20.136 78.8713 20.136C77.3673 20.136 76.2153 20.664 75.4153 21.72C74.6473 22.744 74.0393 24.296 73.5913 26.376V39H66.0073V13.512H72.6313L73.2553 18.456C73.8313 16.696 74.6953 15.32 75.8473 14.328C77.0313 13.304 78.3593 12.792 79.8313 12.792ZM94.8598 12.696C96.6198 12.696 98.2038 12.952 99.6118 13.464C101.02 13.976 102.348 14.76 103.596 15.816L100.332 20.328C98.7318 19.112 97.1158 18.504 95.4838 18.504C93.7878 18.504 92.5078 19.128 91.6438 20.376C90.7798 21.624 90.3478 23.64 90.3478 26.424C90.3478 29.112 90.7798 31.016 91.6438 32.136C92.5078 33.256 93.7558 33.816 95.3878 33.816C96.2518 33.816 97.0358 33.688 97.7398 33.432C98.4438 33.144 99.2918 32.696 100.284 32.088L103.596 36.792C101.068 38.808 98.2038 39.816 95.0038 39.816C92.4118 39.816 90.1718 39.272 88.2838 38.184C86.3958 37.064 84.9398 35.512 83.9158 33.528C82.8918 31.512 82.3798 29.16 82.3798 26.472C82.3798 23.784 82.8918 21.4 83.9158 19.32C84.9398 17.24 86.3958 15.624 88.2838 14.472C90.1718 13.288 92.3638 12.696 94.8598 12.696ZM128.075 25.752C128.075 26.808 128.027 27.72 127.931 28.488H112.139C112.395 30.632 113.003 32.136 113.963 33C114.923 33.864 116.251 34.296 117.947 34.296C118.971 34.296 119.963 34.12 120.923 33.768C121.883 33.384 122.923 32.808 124.043 32.04L127.163 36.264C124.187 38.632 120.875 39.816 117.227 39.816C113.099 39.816 109.931 38.6 107.723 36.168C105.515 33.736 104.411 30.472 104.411 26.376C104.411 23.784 104.875 21.464 105.803 19.416C106.731 17.336 108.091 15.704 109.883 14.52C111.675 13.304 113.819 12.696 116.315 12.696C119.995 12.696 122.875 13.848 124.955 16.152C127.035 18.456 128.075 21.656 128.075 25.752ZM120.635 23.592C120.571 19.688 119.195 17.736 116.507 17.736C115.195 17.736 114.171 18.216 113.435 19.176C112.731 20.136 112.299 21.72 112.139 23.928H120.635V23.592ZM139.103 39.816C136.895 39.816 135.167 39.192 133.919 37.944C132.703 36.664 132.095 34.856 132.095 32.52V3.384L139.679 2.568V32.232C139.679 33.288 140.111 33.816 140.975 33.816C141.423 33.816 141.839 33.736 142.223 33.576L143.711 38.952C142.335 39.528 140.799 39.816 139.103 39.816ZM157.391 12.696C161.295 12.696 164.351 13.896 166.559 16.296C168.767 18.664 169.871 21.992 169.871 26.28C169.871 29 169.359 31.384 168.335 33.432C167.343 35.448 165.903 37.016 164.015 38.136C162.159 39.256 159.951 39.816 157.391 39.816C153.519 39.816 150.463 38.632 148.223 36.264C146.015 33.864 144.911 30.52 144.911 26.232C144.911 23.512 145.407 21.144 146.399 19.128C147.423 17.08 148.863 15.496 150.719 14.376C152.607 13.256 154.831 12.696 157.391 12.696ZM157.391 18.264C155.855 18.264 154.703 18.92 153.935 20.232C153.167 21.512 152.783 23.512 152.783 26.232C152.783 29.016 153.151 31.048 153.887 32.328C154.655 33.608 155.823 34.248 157.391 34.248C158.927 34.248 160.079 33.608 160.847 32.328C161.615 31.016 161.999 29 161.999 26.28C161.999 23.496 161.615 21.464 160.847 20.184C160.111 18.904 158.959 18.264 157.391 18.264ZM185.917 39V5.736H205.741L204.925 11.352H193.789V20.184H203.485V25.8H193.789V39H185.917ZM229.7 25.752C229.7 26.808 229.652 27.72 229.556 28.488H213.764C214.02 30.632 214.628 32.136 215.588 33C216.548 33.864 217.876 34.296 219.572 34.296C220.596 34.296 221.588 34.12 222.548 33.768C223.508 33.384 224.548 32.808 225.668 32.04L228.788 36.264C225.812 38.632 222.5 39.816 218.852 39.816C214.724 39.816 211.556 38.6 209.348 36.168C207.14 33.736 206.036 30.472 206.036 26.376C206.036 23.784 206.5 21.464 207.428 19.416C208.356 17.336 209.716 15.704 211.508 14.52C213.3 13.304 215.444 12.696 217.94 12.696C221.62 12.696 224.5 13.848 226.58 16.152C228.66 18.456 229.7 21.656 229.7 25.752ZM222.26 23.592C222.196 19.688 220.82 17.736 218.132 17.736C216.82 17.736 215.796 18.216 215.06 19.176C214.356 20.136 213.924 21.72 213.764 23.928H222.26V23.592ZM240.728 39.816C238.52 39.816 236.792 39.192 235.544 37.944C234.328 36.664 233.72 34.856 233.72 32.52V3.384L241.304 2.568V32.232C241.304 33.288 241.736 33.816 242.6 33.816C243.048 33.816 243.464 33.736 243.848 33.576L245.336 38.952C243.96 39.528 242.424 39.816 240.728 39.816ZM255.794 13.512V39H248.21V13.512H255.794ZM251.954 0.0719976C253.266 0.0719976 254.338 0.487998 255.17 1.32C256.034 2.12 256.466 3.144 256.466 4.392C256.466 5.64 256.034 6.68 255.17 7.512C254.338 8.312 253.266 8.712 251.954 8.712C250.642 8.712 249.57 8.312 248.738 7.512C247.906 6.68 247.49 5.64 247.49 4.392C247.49 3.144 247.906 2.12 248.738 1.32C249.57 0.487998 250.642 0.0719976 251.954 0.0719976ZM272.797 12.696C274.557 12.696 276.141 12.952 277.549 13.464C278.957 13.976 280.285 14.76 281.533 15.816L278.269 20.328C276.669 19.112 275.053 18.504 273.421 18.504C271.725 18.504 270.445 19.128 269.581 20.376C268.717 21.624 268.285 23.64 268.285 26.424C268.285 29.112 268.717 31.016 269.581 32.136C270.445 33.256 271.693 33.816 273.325 33.816C274.189 33.816 274.973 33.688 275.677 33.432C276.381 33.144 277.229 32.696 278.221 32.088L281.533 36.792C279.005 38.808 276.141 39.816 272.941 39.816C270.349 39.816 268.109 39.272 266.221 38.184C264.333 37.064 262.877 35.512 261.853 33.528C260.829 31.512 260.317 29.16 260.317 26.472C260.317 23.784 260.829 21.4 261.853 19.32C262.877 17.24 264.333 15.624 266.221 14.472C268.109 13.288 270.301 12.696 272.797 12.696ZM292.31 13.512V39H284.726V13.512H292.31ZM288.47 0.0719976C289.782 0.0719976 290.854 0.487998 291.686 1.32C292.55 2.12 292.982 3.144 292.982 4.392C292.982 5.64 292.55 6.68 291.686 7.512C290.854 8.312 289.782 8.712 288.47 8.712C287.158 8.712 286.086 8.312 285.254 7.512C284.422 6.68 284.006 5.64 284.006 4.392C284.006 3.144 284.422 2.12 285.254 1.32C286.086 0.487998 287.158 0.0719976 288.47 0.0719976ZM318.529 31.608C318.529 32.568 318.657 33.272 318.913 33.72C319.201 34.168 319.649 34.504 320.257 34.728L318.673 39.672C317.105 39.544 315.825 39.208 314.833 38.664C313.841 38.088 313.073 37.192 312.529 35.976C310.865 38.536 308.305 39.816 304.849 39.816C302.321 39.816 300.305 39.08 298.801 37.608C297.297 36.136 296.545 34.216 296.545 31.848C296.545 29.064 297.569 26.936 299.617 25.464C301.665 23.992 304.625 23.256 308.497 23.256H311.089V22.152C311.089 20.648 310.769 19.624 310.129 19.08C309.489 18.504 308.369 18.216 306.769 18.216C305.937 18.216 304.929 18.344 303.745 18.6C302.561 18.824 301.345 19.144 300.097 19.56L298.369 14.568C299.969 13.96 301.601 13.496 303.265 13.176C304.961 12.856 306.529 12.696 307.969 12.696C311.617 12.696 314.289 13.448 315.985 14.952C317.681 16.456 318.529 18.712 318.529 21.72V31.608ZM307.057 34.392C308.785 34.392 310.129 33.576 311.089 31.944V27.432H309.217C307.489 27.432 306.193 27.736 305.329 28.344C304.497 28.952 304.081 29.896 304.081 31.176C304.081 32.2 304.337 33 304.849 33.576C305.393 34.12 306.129 34.392 307.057 34.392ZM339.498 12.696C341.706 12.696 343.434 13.368 344.682 14.712C345.93 16.056 346.554 17.944 346.554 20.376V39H338.97V21.672C338.97 20.392 338.762 19.512 338.346 19.032C337.962 18.52 337.37 18.264 336.57 18.264C335.034 18.264 333.562 19.368 332.154 21.576V39H324.57V13.512H331.194L331.722 16.536C332.81 15.256 333.978 14.296 335.226 13.656C336.506 13.016 337.93 12.696 339.498 12.696ZM363.313 12.696C367.217 12.696 370.273 13.896 372.481 16.296C374.689 18.664 375.793 21.992 375.793 26.28C375.793 29 375.281 31.384 374.257 33.432C373.265 35.448 371.825 37.016 369.937 38.136C368.081 39.256 365.873 39.816 363.313 39.816C359.441 39.816 356.385 38.632 354.145 36.264C351.937 33.864 350.833 30.52 350.833 26.232C350.833 23.512 351.329 21.144 352.321 19.128C353.345 17.08 354.785 15.496 356.641 14.376C358.529 13.256 360.753 12.696 363.313 12.696ZM363.313 18.264C361.777 18.264 360.625 18.92 359.857 20.232C359.089 21.512 358.705 23.512 358.705 26.232C358.705 29.016 359.073 31.048 359.809 32.328C360.577 33.608 361.745 34.248 363.313 34.248C364.849 34.248 366.001 33.608 366.769 32.328C367.537 31.016 367.921 29 367.921 26.28C367.921 23.496 367.537 21.464 366.769 20.184C366.033 18.904 364.881 18.264 363.313 18.264Z" fill="#141414"/>
</svg>
